<svg width="20" height="20" viewBox="0 0 20 20" fill="none" xmlns="http://www.w3.org/2000/svg">
<g clip-path="url(#clip0_73_561)">
<path d="M19.5804 10.8828C20.1384 10.3945 20.1384 9.60156 19.5804 9.11328L12.4375 2.86328C11.8795 2.375 10.9732 2.375 10.4152 2.86328C9.85714 3.35156 9.85714 4.14453 10.4152 4.63281L15.125 8.75H1.42857C0.638393 8.75 0 9.30859 0 10C0 10.6914 0.638393 11.25 1.42857 11.25H15.1205L10.4196 15.3672C9.86161 15.8555 9.86161 16.6484 10.4196 17.1367C10.9777 17.625 11.8839 17.625 12.442 17.1367L19.5848 10.8867L19.5804 10.8828Z" fill="white"/>
</g>
<defs>
<clipPath id="clip0_73_561">
<rect width="20" height="20" fill="white"/>
</clipPath>
</defs>
</svg>
