<svg width="48" height="48" viewBox="0 0 48 48" fill="none" xmlns="http://www.w3.org/2000/svg">
<path d="M37.849 45.1H10.0536C7.23517 45.1 4.99988 42.8 4.99988 39.9V6.10002C4.99988 3.20002 7.23517 0.900024 10.0536 0.900024H37.9462C40.7646 0.900024 42.9999 3.20002 42.9999 6.10002V40C42.9027 42.8 40.6674 45.1 37.849 45.1Z" fill="#F6F8B0"/>
<path fill-rule="evenodd" clip-rule="evenodd" d="M10.0536 43.9H37.849C39.9743 43.9 41.7141 42.1636 41.7999 39.9779V6.10002C41.7999 3.83025 40.0698 2.10002 37.9462 2.10002H10.0536C7.92996 2.10002 6.19988 3.83026 6.19988 6.10002V39.9C6.19988 42.1698 7.92996 43.9 10.0536 43.9ZM10.0536 45.1H37.849C40.6674 45.1 42.9027 42.8 42.9999 40V6.10002C42.9999 3.20002 40.7646 0.900024 37.9462 0.900024H10.0536C7.23517 0.900024 4.99988 3.20002 4.99988 6.10002V39.9C4.99988 42.8 7.23517 45.1 10.0536 45.1Z" fill="#545A60"/>
<path d="M0.999878 11.4C0.999878 10.0745 2.07439 9 3.39988 9H3.59988C4.92536 9 5.99988 10.0745 5.99988 11.4V31.6C5.99988 32.9255 4.92536 34 3.59988 34H3.39988C2.0744 34 0.999878 32.9255 0.999878 31.6V11.4Z" fill="white"/>
<path fill-rule="evenodd" clip-rule="evenodd" d="M3.59988 10.2H3.39988C2.73714 10.2 2.19988 10.7373 2.19988 11.4V31.6C2.19988 32.2627 2.73714 32.8 3.39988 32.8H3.59988C4.26262 32.8 4.79988 32.2627 4.79988 31.6V11.4C4.79988 10.7373 4.26262 10.2 3.59988 10.2ZM3.39988 9C2.07439 9 0.999878 10.0745 0.999878 11.4V31.6C0.999878 32.9255 2.0744 34 3.39988 34H3.59988C4.92536 34 5.99988 32.9255 5.99988 31.6V11.4C5.99988 10.0745 4.92536 9 3.59988 9H3.39988Z" fill="#545A60"/>
<path d="M41.9997 12.4002C41.9997 11.0748 43.0742 10.0002 44.3997 10.0002H44.5997C45.9252 10.0002 46.9997 11.0748 46.9997 12.4002V32.6002C46.9997 33.9257 45.9252 35.0002 44.5997 35.0002H44.3997C43.0742 35.0002 41.9997 33.9257 41.9997 32.6002V12.4002Z" fill="white"/>
<path fill-rule="evenodd" clip-rule="evenodd" d="M44.5997 11.2002H44.3997C43.737 11.2002 43.1997 11.7375 43.1997 12.4002V32.6002C43.1997 33.263 43.737 33.8002 44.3997 33.8002H44.5997C45.2624 33.8002 45.7997 33.263 45.7997 32.6002V12.4002C45.7997 11.7375 45.2624 11.2002 44.5997 11.2002ZM44.3997 10.0002C43.0742 10.0002 41.9997 11.0748 41.9997 12.4002V32.6002C41.9997 33.9257 43.0742 35.0002 44.3997 35.0002H44.5997C45.9252 35.0002 46.9997 33.9257 46.9997 32.6002V12.4002C46.9997 11.0748 45.9252 10.0002 44.5997 10.0002H44.3997Z" fill="#545A60"/>
<path d="M2.3996 37.6094C2.3996 36.6094 3.0996 35.9094 3.8996 36.0094C9.3996 36.8094 15.7996 37.4094 22.9996 37.4094C30.8996 37.4094 37.8996 36.8094 43.7996 36.0094C44.5996 35.9094 45.2996 36.6094 45.2996 37.6094V43.0094C45.2996 43.8094 44.7996 44.4094 44.1996 44.6094C38.9996 45.7094 32.3996 46.6094 24.6996 46.7094C16.1996 46.8094 8.9996 45.8094 3.4996 44.6094C2.7996 44.5094 2.3996 43.8094 2.3996 43.0094V37.6094Z" fill="#F6F8B0"/>
<path fill-rule="evenodd" clip-rule="evenodd" d="M3.69998 45.0002C9.19998 46.2002 16.4 47.2002 24.9 47.1002C32.6 47.0002 39.2 46.1002 44.4 45.0002C45 44.8002 45.5 44.2002 45.5 43.4002V38.0002C45.5 37.0002 44.8 36.3002 44 36.4002C38.1 37.2002 31.1 37.8002 23.2 37.8002C16 37.8002 9.59998 37.2002 4.09998 36.4002C3.29998 36.3002 2.59998 37.0002 2.59998 38.0002V43.4002C2.59998 44.2002 2.99998 44.9002 3.69998 45.0002ZM3.94979 37.591C3.94548 37.5931 3.93372 37.5999 3.91715 37.6172C3.87556 37.6607 3.79998 37.7794 3.79998 38.0002V43.4002C3.79998 43.6121 3.85464 43.749 3.89261 43.8072C3.89491 43.8108 3.89704 43.8138 3.89896 43.8165L3.91301 43.8185L3.95578 43.8278C9.37859 45.011 16.4872 45.999 24.8848 45.9003C32.4548 45.802 38.944 44.9219 44.0591 43.8458C44.1708 43.79 44.3 43.6463 44.3 43.4002V38.0002C44.3 37.7794 44.2244 37.6607 44.1828 37.6172C44.1659 37.5995 44.1539 37.5929 44.1499 37.5909C38.2061 38.3964 31.1557 39.0002 23.2 39.0002C15.9427 39.0002 9.49194 38.3963 3.94979 37.591ZM44.1487 37.5903C44.1485 37.5903 44.1484 37.5902 44.1483 37.5902Z" fill="#545A60"/>
<path d="M22.464 17.1461C22.691 16.9661 22.961 16.8351 23.25 16.7521V19.5471C22.9648 19.469 22.6977 19.3354 22.464 19.1541C22.07 18.8411 21.918 18.4731 21.918 18.1501C21.918 17.8271 22.07 17.4591 22.464 17.1461ZM24.75 24.0621V21.2381C25.097 21.3231 25.414 21.4661 25.671 21.6591C26.098 21.9791 26.25 22.3451 26.25 22.6501C26.25 22.9551 26.098 23.3211 25.671 23.6411C25.3954 23.8416 25.0822 23.9854 24.75 24.0621Z" fill="#B0B35C"/>
<path fill-rule="evenodd" clip-rule="evenodd" d="M24 10.65C18.615 10.65 14.25 15.015 14.25 20.4C14.25 25.785 18.615 30.15 24 30.15C29.385 30.15 33.75 25.785 33.75 20.4C33.75 15.015 29.385 10.65 24 10.65ZM24.75 14.4C24.75 14.2011 24.671 14.0103 24.5303 13.8697C24.3897 13.729 24.1989 13.65 24 13.65C23.8011 13.65 23.6103 13.729 23.4697 13.8697C23.329 14.0103 23.25 14.2011 23.25 14.4V15.216C22.6229 15.3216 22.0318 15.5813 21.53 15.972C20.818 16.538 20.418 17.322 20.418 18.15C20.418 18.979 20.818 19.762 21.531 20.328C22.033 20.728 22.633 20.975 23.25 21.084V24.062C22.9178 23.985 22.6046 23.8418 22.329 23.641L21.45 22.981C21.3712 22.9219 21.2815 22.8789 21.1861 22.8545C21.0907 22.83 20.9914 22.8246 20.8939 22.8386C20.697 22.8667 20.5193 22.9719 20.4 23.131C20.2807 23.2902 20.2294 23.4902 20.2575 23.6871C20.2857 23.884 20.3909 24.0617 20.55 24.181L21.429 24.841C21.962 25.241 22.598 25.486 23.25 25.591V26.4C23.25 26.5989 23.329 26.7897 23.4697 26.9304C23.6103 27.071 23.8011 27.15 24 27.15C24.1989 27.15 24.3897 27.071 24.5303 26.9304C24.671 26.7897 24.75 26.5989 24.75 26.4V25.59C25.4086 25.4911 26.0334 25.2341 26.571 24.841C27.316 24.282 27.75 23.497 27.75 22.65C27.75 21.803 27.316 21.018 26.571 20.459C26.0335 20.0656 25.4087 19.8082 24.75 19.709V16.754C25.04 16.836 25.309 16.967 25.536 17.147L25.951 17.477C26.1068 17.6007 26.3054 17.6575 26.5031 17.6348C26.7007 17.6121 26.8813 17.5118 27.005 17.356C27.1287 17.2002 27.1855 17.0016 27.1628 16.804C27.1401 16.6063 27.0398 16.4257 26.884 16.302L26.469 15.972C25.9674 15.5819 25.3767 15.3224 24.75 15.217V14.4Z" fill="#B0B35C"/>
</svg>
