<svg width="48" height="48" viewBox="0 0 48 48" fill="none" xmlns="http://www.w3.org/2000/svg">
<path d="M37.849 44.6H10.0536C7.52467 44.6 5.49988 42.5374 5.49988 39.9V6.10002C5.49988 3.46262 7.52467 1.40002 10.0536 1.40002H37.9462C40.4751 1.40002 42.4999 3.46262 42.4999 6.10002V39.9911C42.4072 42.5351 40.3784 44.6 37.849 44.6Z" fill="#ADB3B8" stroke="#545A60"/>
<rect x="1.49988" y="9.50012" width="4" height="24" rx="1.5" fill="#ADB3B8" stroke="#545A60"/>
<rect x="42.4999" y="10.5001" width="4" height="24" rx="1.5" fill="#ADB3B8" stroke="#545A60"/>
<path d="M3.80656 44.5117L3.78874 44.5078L3.77069 44.5053C3.42655 44.4561 3.09998 44.081 3.09998 43.4002V38.0002C3.09998 37.2156 3.61402 36.8463 4.0337 36.8959C9.55209 37.6983 15.9745 38.3002 23.2 38.3002C31.124 38.3002 38.1456 37.6985 44.0642 36.8961C44.4843 36.8451 45 37.2143 45 38.0002V43.4002C45 43.9698 44.6553 44.3762 44.2659 44.5175C39.1001 45.6084 32.5435 46.5009 24.8938 46.6003C16.4364 46.6998 9.27444 45.7047 3.80656 44.5117Z" fill="#ADB3B8" stroke="#545A60"/>
<path d="M30.5011 27.6C30.3196 27.6 30.1381 27.5273 30.0019 27.3912L17.0043 14.3935C16.732 14.1212 16.732 13.6765 17.0043 13.4042C17.2766 13.1319 17.7213 13.1319 17.9936 13.4042L30.9913 26.4018C31.2636 26.6741 31.2636 27.1189 30.9913 27.3912C30.8551 27.5273 30.6736 27.6 30.4921 27.6H30.5011Z" fill="#E4E6E7"/>
<path d="M17.5035 27.6C17.322 27.6 17.1404 27.5273 17.0043 27.3912C16.732 27.1189 16.732 26.6741 17.0043 26.4018L30.0019 13.4042C30.2742 13.1319 30.719 13.1319 30.9913 13.4042C31.2636 13.6765 31.2636 14.1212 30.9913 14.3935L17.9936 27.3912C17.8575 27.5273 17.6759 27.6 17.4944 27.6H17.5035Z" fill="#E4E6E7"/>
</svg>
