<?xml version="1.0" encoding="utf-8"?>

<!-- Uploaded to: SVG Repo, www.svgrepo.com, Generator: SVG Repo Mixer Tools -->
<svg fill="#fff" width="800px" height="800px" viewBox="0 -13.26 43.528 43.528" xmlns="http://www.w3.org/2000/svg">
  <g id="Plane" transform="translate(-542.072 -382)">
    <path id="Path_64" data-name="Path 64" d="M558.8,389.1l5-3.6h1.6l-.8,3.7"/>
    <path id="Path_65" data-name="Path 65" d="M560.5,397.7l4.9,1.3h2.4l-2.7-1.7"/>
    <path id="Path_66" data-name="Path 66" d="M573.3,389.4Z"/>
    <path id="Path_67" data-name="Path 67" d="M578.3,393l7.3-11h-3.5l-8.8,7.4a39.212,39.212,0,0,0-4.7-.2l-18.9-.8h-.1c-2-.2-5,2.1-5,2.1-1.8,1-4.5,3.2-.3,5.7,0,0,1.9,1.2,9.4,1.5h.2c10.7.5,24.5-1.8,24.5-1.8l2.1-.6C583.2,393.8,578.3,393,578.3,393Zm-29.1-2.3h-3.5c3-1.8,4.4-1.6,4.4-1.6Zm4.2,1.4a.472.472,0,0,1-.5.5h-.3a.472.472,0,0,1-.5-.5v-.3a.472.472,0,0,1,.5-.5h.3a.472.472,0,0,1,.5.5Zm3.4,0a.472.472,0,0,1-.5.5H556a.472.472,0,0,1-.5-.5v-.3a.472.472,0,0,1,.5-.5h.3a.472.472,0,0,1,.5.5Zm5.5,2a1.751,1.751,0,0,1-3.5-.1v-1.6a1.751,1.751,0,1,1,3.5.1Zm3.7-2a.472.472,0,0,1-.5.5h-.3a.472.472,0,0,1-.5-.5v-.3a.472.472,0,0,1,.5-.5h.3a.472.472,0,0,1,.5.5Zm3.3,0a.472.472,0,0,1-.5.5h-.3a.472.472,0,0,1-.5-.5v-.3a.472.472,0,0,1,.5-.5h.3a.472.472,0,0,1,.5.5Zm3.3,0a.472.472,0,0,1-.5.5h-.3a.472.472,0,0,1-.5-.5v-.3a.472.472,0,0,1,.5-.5h.3a.472.472,0,0,1,.5.5Z"/>
  </g>
</svg>