<svg width="48" height="48" viewBox="0 0 48 48" fill="none" xmlns="http://www.w3.org/2000/svg">
<path d="M37.849 45.1H10.0536C7.2352 45.1 4.99991 42.8 4.99991 39.9V6.10002C4.99991 3.20002 7.2352 0.900024 10.0536 0.900024H37.9462C40.7646 0.900024 42.9999 3.20002 42.9999 6.10002V40C42.9027 42.8 40.6674 45.1 37.849 45.1Z" fill="#E0EFDD"/>
<path fill-rule="evenodd" clip-rule="evenodd" d="M10.0536 43.9H37.849C39.9743 43.9 41.7141 42.1636 41.7999 39.9779V6.10002C41.7999 3.83025 40.0698 2.10002 37.9462 2.10002H10.0536C7.92999 2.10002 6.19991 3.83026 6.19991 6.10002V39.9C6.19991 42.1698 7.92999 43.9 10.0536 43.9ZM10.0536 45.1H37.849C40.6674 45.1 42.9027 42.8 42.9999 40V6.10002C42.9999 3.20002 40.7646 0.900024 37.9462 0.900024H10.0536C7.2352 0.900024 4.99991 3.20002 4.99991 6.10002V39.9C4.99991 42.8 7.2352 45.1 10.0536 45.1Z" fill="#545A60"/>
<path d="M0.999908 11.4001C0.999908 10.0746 2.07442 9.00012 3.39991 9.00012H3.59991C4.92539 9.00012 5.99991 10.0746 5.99991 11.4001V31.6001C5.99991 32.9256 4.92539 34.0001 3.59991 34.0001H3.39991C2.07443 34.0001 0.999908 32.9256 0.999908 31.6001V11.4001Z" fill="white"/>
<path fill-rule="evenodd" clip-rule="evenodd" d="M3.59991 10.2001H3.39991C2.73717 10.2001 2.19991 10.7374 2.19991 11.4001V31.6001C2.19991 32.2629 2.73717 32.8001 3.39991 32.8001H3.59991C4.26265 32.8001 4.79991 32.2629 4.79991 31.6001V11.4001C4.79991 10.7374 4.26265 10.2001 3.59991 10.2001ZM3.39991 9.00012C2.07442 9.00012 0.999908 10.0746 0.999908 11.4001V31.6001C0.999908 32.9256 2.07443 34.0001 3.39991 34.0001H3.59991C4.92539 34.0001 5.99991 32.9256 5.99991 31.6001V11.4001C5.99991 10.0746 4.92539 9.00012 3.59991 9.00012H3.39991Z" fill="#545A60"/>
<path d="M41.9999 12.4001C41.9999 11.0746 43.0745 10.0001 44.3999 10.0001H44.5999C45.9254 10.0001 46.9999 11.0746 46.9999 12.4001V32.6001C46.9999 33.9256 45.9254 35.0001 44.5999 35.0001H44.3999C43.0745 35.0001 41.9999 33.9256 41.9999 32.6001V12.4001Z" fill="white"/>
<path fill-rule="evenodd" clip-rule="evenodd" d="M44.5999 11.2001H44.3999C43.7372 11.2001 43.1999 11.7374 43.1999 12.4001V32.6001C43.1999 33.2629 43.7372 33.8001 44.3999 33.8001H44.5999C45.2627 33.8001 45.7999 33.2629 45.7999 32.6001V12.4001C45.7999 11.7374 45.2627 11.2001 44.5999 11.2001ZM44.3999 10.0001C43.0745 10.0001 41.9999 11.0746 41.9999 12.4001V32.6001C41.9999 33.9256 43.0745 35.0001 44.3999 35.0001H44.5999C45.9254 35.0001 46.9999 33.9256 46.9999 32.6001V12.4001C46.9999 11.0746 45.9254 10.0001 44.5999 10.0001H44.3999Z" fill="#545A60"/>
<path d="M2.60001 38.0002C2.60001 37.0002 3.30001 36.3002 4.10001 36.4002C9.60001 37.2002 16 37.8002 23.2 37.8002C31.1 37.8002 38.1 37.2002 44 36.4002C44.8 36.3002 45.5 37.0002 45.5 38.0002V43.4002C45.5 44.2002 45 44.8002 44.4 45.0002C39.2 46.1002 32.6 47.0002 24.9 47.1002C16.4 47.2002 9.20001 46.2002 3.70001 45.0002C3.00001 44.9002 2.60001 44.2002 2.60001 43.4002V38.0002Z" fill="#E0EFDD"/>
<path fill-rule="evenodd" clip-rule="evenodd" d="M3.70001 45.0002C9.20001 46.2002 16.4 47.2002 24.9 47.1002C32.6 47.0002 39.2 46.1002 44.4 45.0002C45 44.8002 45.5 44.2002 45.5 43.4002V38.0002C45.5 37.0002 44.8 36.3002 44 36.4002C38.1 37.2002 31.1 37.8002 23.2 37.8002C16 37.8002 9.60001 37.2002 4.10001 36.4002C3.30001 36.3002 2.60001 37.0002 2.60001 38.0002V43.4002C2.60001 44.2002 3.00001 44.9002 3.70001 45.0002ZM3.94982 37.591C3.94551 37.5931 3.93375 37.5999 3.91718 37.6172C3.87559 37.6607 3.80001 37.7794 3.80001 38.0002V43.4002C3.80001 43.6121 3.85467 43.749 3.89264 43.8072C3.89494 43.8108 3.89707 43.8138 3.89899 43.8165L3.91304 43.8185L3.95581 43.8278C9.37862 45.011 16.4872 45.999 24.8848 45.9003C32.4548 45.802 38.944 44.9219 44.0591 43.8458C44.1708 43.79 44.3 43.6463 44.3 43.4002V38.0002C44.3 37.7794 44.2244 37.6607 44.1828 37.6172C44.1659 37.5995 44.154 37.5929 44.1499 37.5909C38.2061 38.3964 31.1557 39.0002 23.2 39.0002C15.9427 39.0002 9.49197 38.3963 3.94982 37.591ZM44.1488 37.5903C44.1486 37.5903 44.1484 37.5902 44.1484 37.5902Z" fill="#545A60"/>
</svg>
