<svg width="48" height="48" viewBox="0 0 48 48" fill="none" xmlns="http://www.w3.org/2000/svg">
<path d="M37.849 44.6H10.0536C7.52467 44.6 5.49988 42.5374 5.49988 39.9V6.10002C5.49988 3.46262 7.52467 1.40002 10.0536 1.40002H37.9462C40.4751 1.40002 42.4999 3.46262 42.4999 6.10002V39.9911C42.4072 42.5351 40.3784 44.6 37.849 44.6Z" fill="#B2DFF3" stroke="#545A60"/>
<rect x="1.49988" y="9.50012" width="4" height="24" rx="1.5" fill="white" stroke="#545A60"/>
<rect x="42.4999" y="10.5001" width="4" height="24" rx="1.5" fill="white" stroke="#545A60"/>
<path d="M3.80656 44.5117L3.78874 44.5078L3.77069 44.5053C3.42655 44.4561 3.09998 44.081 3.09998 43.4002V38.0002C3.09998 37.2156 3.61402 36.8463 4.0337 36.8959C9.55209 37.6983 15.9745 38.3002 23.2 38.3002C31.124 38.3002 38.1456 37.6985 44.0642 36.8961C44.4843 36.8451 45 37.2143 45 38.0002V43.4002C45 43.9698 44.6553 44.3762 44.2659 44.5175C39.1001 45.6084 32.5435 46.5009 24.8938 46.6003C16.4364 46.6998 9.27444 45.7047 3.80656 44.5117Z" fill="#B2DFF3" stroke="#545A60"/>
<path d="M22.464 17.1461C22.691 16.9661 22.961 16.8351 23.25 16.7521V19.5471C22.9648 19.469 22.6977 19.3354 22.464 19.1541C22.07 18.8411 21.918 18.4731 21.918 18.1501C21.918 17.8271 22.07 17.4591 22.464 17.1461ZM24.75 24.0621V21.2381C25.097 21.3231 25.414 21.4661 25.671 21.6591C26.098 21.9791 26.25 22.3451 26.25 22.6501C26.25 22.9551 26.098 23.3211 25.671 23.6411C25.3954 23.8416 25.0822 23.9854 24.75 24.0621Z" fill="#79B9D6"/>
<path fill-rule="evenodd" clip-rule="evenodd" d="M24 10.65C18.615 10.65 14.25 15.015 14.25 20.4C14.25 25.785 18.615 30.15 24 30.15C29.385 30.15 33.75 25.785 33.75 20.4C33.75 15.015 29.385 10.65 24 10.65ZM24.75 14.4C24.75 14.2011 24.671 14.0103 24.5303 13.8697C24.3897 13.729 24.1989 13.65 24 13.65C23.8011 13.65 23.6103 13.729 23.4697 13.8697C23.329 14.0103 23.25 14.2011 23.25 14.4V15.216C22.6229 15.3216 22.0318 15.5813 21.53 15.972C20.818 16.538 20.418 17.322 20.418 18.15C20.418 18.979 20.818 19.762 21.531 20.328C22.033 20.728 22.633 20.975 23.25 21.084V24.062C22.9178 23.985 22.6046 23.8418 22.329 23.641L21.45 22.981C21.3712 22.9219 21.2815 22.8789 21.1861 22.8545C21.0907 22.83 20.9914 22.8246 20.8939 22.8386C20.697 22.8667 20.5193 22.9719 20.4 23.131C20.2807 23.2902 20.2294 23.4902 20.2575 23.6871C20.2857 23.884 20.3909 24.0617 20.55 24.181L21.429 24.841C21.962 25.241 22.598 25.486 23.25 25.591V26.4C23.25 26.5989 23.329 26.7897 23.4697 26.9304C23.6103 27.071 23.8011 27.15 24 27.15C24.1989 27.15 24.3897 27.071 24.5303 26.9304C24.671 26.7897 24.75 26.5989 24.75 26.4V25.59C25.4086 25.4911 26.0334 25.2341 26.571 24.841C27.316 24.282 27.75 23.497 27.75 22.65C27.75 21.803 27.316 21.018 26.571 20.459C26.0335 20.0656 25.4087 19.8082 24.75 19.709V16.754C25.04 16.836 25.309 16.967 25.536 17.147L25.951 17.477C26.1068 17.6007 26.3054 17.6575 26.5031 17.6348C26.7007 17.6121 26.8813 17.5118 27.005 17.356C27.1287 17.2002 27.1855 17.0016 27.1628 16.804C27.1401 16.6063 27.0398 16.4257 26.884 16.302L26.469 15.972C25.9674 15.5819 25.3767 15.3224 24.75 15.217V14.4Z" fill="#79B9D6"/>
</svg>
