<!DOCTYPE svg PUBLIC "-//W3C//DTD SVG 1.1//EN" "http://www.w3.org/Graphics/SVG/1.1/DTD/svg11.dtd">

<!-- Uploaded to: SVG Repo, www.svgrepo.com, Transformed by: SVG Repo Mixer Tools -->
<svg fill="#000" version="1.1" id="Capa_1" xmlns="http://www.w3.org/2000/svg" xmlns:xlink="http://www.w3.org/1999/xlink" width="800px" height="800px" viewBox="0 0 360.031 360.031" xml:space="preserve" stroke="#000">

<g id="SVGRepo_bgCarrier" stroke-width="0"/>

<g id="SVGRepo_tracerCarrier" stroke-linecap="round" stroke-linejoin="round"/>

<g id="SVGRepo_iconCarrier"> <g> <g> <g> <path d="M356.354,82.579l-0.774-0.688c-6.684-4.678-16.201-7.14-27.508-7.14c-17.973,0-36.587,6.095-44.982,11.812l-66.16,45.171 L87.958,159.128c-1.129,0.246-2.177,0.688-3.134,1.339c-2.504,1.735-3.948,4.687-3.783,7.719 c0.258,4.354,3.585,7.815,7.878,8.214l54.542,5.492l-53.164,36.291c-15.829-7.267-30.856-14.316-44.679-20.934 c-21.422-10.268-35.407-12.075-41.979-5.5c-6.842,6.846-2.384,18.543,0.057,22.109l51.212,66.396 c1.723,2.516,3.702,3.957,6.077,4.39c3.942,0.678,7.365-1.682,10.932-4.21l12.967-8.935l72.037-34.979l-10.542,37.65 c-1.156,4.173,0.862,8.503,4.804,10.322c1.12,0.517,2.381,0.786,3.627,0.786c1.778,0,3.48-0.528,4.963-1.519 c0.958-0.643,1.726-1.447,2.366-2.42l41.22-62.643l25.214-29.501l111.81-76.333c1.712-1.162,3.381-2.234,5.056-3.315 c3.855-2.459,7.5-4.792,10.125-7.44C361.213,96.477,361.537,90.193,356.354,82.579z"/> </g> </g> </g> </g>

</svg>