<?xml version="1.0" ?>
<!DOCTYPE svg  PUBLIC '-//W3C//DTD SVG 1.1//EN'  'http://www.w3.org/Graphics/SVG/1.1/DTD/svg11.dtd'>
<!-- Uploaded to: SVG Repo, www.svgrepo.com, Generator: SVG Repo Mixer Tools -->
<svg fill="#000000" width="800px" height="800px" viewBox="0 0 32 32" style="fill-rule:evenodd;clip-rule:evenodd;stroke-linejoin:round;stroke-miterlimit:2;" version="1.1" xml:space="preserve" xmlns="http://www.w3.org/2000/svg" xmlns:serif="http://www.serif.com/" xmlns:xlink="http://www.w3.org/1999/xlink">
<g transform="matrix(1,0,0,1,0,-96)">
<g transform="matrix(0.923077,0,0,1,-2.92308,-1)">
<circle cx="20.5" cy="105.5" r="6.5" style="fill:rgb(144,224,239);"/>
</g>
<g transform="matrix(0.952381,0,0,1.0101,0.285714,-1.27273)">
<ellipse cx="16.5" cy="120.5" rx="10.5" ry="5.5" style="fill:rgb(144,224,239);"/>
</g>
<path d="M16,113.889C12.437,113.889 9.285,114.883 7.327,116.367C5.83,117.501 5,118.932 5,120.444C5,121.957 5.83,123.388 7.327,124.522C9.285,126.006 12.437,127 16,127C19.563,127 22.715,126.006 24.673,124.522C26.17,123.388 27,121.957 27,120.444C27,118.932 26.17,117.501 24.673,116.367C22.715,114.883 19.563,113.889 16,113.889ZM16,115.889C19.06,115.889 21.783,116.687 23.466,117.961C24.396,118.667 25,119.504 25,120.444C25,121.385 24.396,122.222 23.466,122.928C21.783,124.202 19.06,125 16,125C12.94,125 10.217,124.202 8.534,122.928C7.604,122.222 7,121.385 7,120.444C7,119.504 7.604,118.667 8.534,117.961C10.217,116.687 12.94,115.889 16,115.889ZM16,97C12.159,97 9,100.339 9,104.5C9,108.661 12.159,112 16,112C19.841,112 23,108.661 23,104.5C23,100.339 19.841,97 16,97ZM16,99C18.783,99 21,101.486 21,104.5C21,107.514 18.783,110 16,110C13.217,110 11,107.514 11,104.5C11,101.486 13.217,99 16,99Z" style="fill:rgb(25,144,167);"/>
</g>
</svg>