<svg width="15" height="15" viewBox="0 0 15 15" fill="none" xmlns="http://www.w3.org/2000/svg">
<path d="M14.6853 4.62846C15.1038 4.28565 15.1038 3.72892 14.6853 3.38611L11.471 0.753324C11.0525 0.410513 10.3728 0.410513 9.95424 0.753324C9.53571 1.09613 9.53571 1.65286 9.95424 1.99567L11.3404 3.13106H1.07143C0.478795 3.13106 0 3.52324 0 4.00866C0 4.49408 0.478795 4.88625 1.07143 4.88625H11.3404L9.95424 6.02164C9.53571 6.36445 9.53571 6.92118 9.95424 7.26399C10.3728 7.6068 11.0525 7.6068 11.471 7.26399L14.6853 4.6312V4.62846ZM3.52567 14.282C3.9442 14.6248 4.62388 14.6248 5.04241 14.282C5.46094 13.9392 5.46094 13.3825 5.04241 13.0397L3.6596 11.907H13.9286C14.5212 11.907 15 11.5148 15 11.0294C15 10.544 14.5212 10.1518 13.9286 10.1518H3.6596L5.04576 9.01644C5.46429 8.67363 5.46429 8.1169 5.04576 7.77409C4.62723 7.43128 3.94754 7.43128 3.52902 7.77409L0.314732 10.4069C-0.103795 10.7497 -0.103795 11.3064 0.314732 11.6492L3.52902 14.282H3.52567Z" fill="white"/>
</svg>
