<?xml version="1.0" encoding="utf-8"?><!-- Uploaded to: SVG Repo, www.svgrepo.com, Generator: SVG Repo Mixer Tools -->
<svg fill="#000000" width="800px" height="800px" viewBox="0 0 24 24" id="up-direction" data-name="Flat Color" xmlns="http://www.w3.org/2000/svg" class="icon flat-color"><path id="primary" d="M20.65,8.78,13.3,2.48a2,2,0,0,0-2.6,0L3.35,8.78a1,1,0,0,0-.11,1.41l2.6,3a1,1,0,0,0,.68.35,1.06,1.06,0,0,0,.73-.24L9,11.84V20a2,2,0,0,0,2,2h2a2,2,0,0,0,2-2V11.84l1.75,1.5a1.06,1.06,0,0,0,.73.24,1,1,0,0,0,.68-.35l2.6-3A1,1,0,0,0,20.65,8.78Z" style="fill: rgb(0, 0, 0);"></path></svg>